<svg width="180" height="180" viewBox="0 0 180 180" fill="none" xmlns="http://www.w3.org/2000/svg">
<rect x="9" y="8" width="163" height="163" rx="24" fill="#FF7700"/>
<rect x="17" y="16" width="70" height="147" rx="18" fill="#FF3C00"/>
<rect x="94" y="16" width="70" height="147" rx="18" fill="#FF3C00"/>
<path d="M48.666 112V84.608H38.554V75.904H42.522C44.57 75.904 46.234 75.6267 47.514 75.072C48.794 74.4747 49.7327 73.4933 50.33 72.128C50.9273 70.7627 51.226 68.9067 51.226 66.56H61.21V112H48.666Z" fill="white"/>
<path d="M125.666 112V84.608H115.554V75.904H119.522C121.57 75.904 123.234 75.6267 124.514 75.072C125.794 74.4747 126.733 73.4933 127.33 72.128C127.927 70.7627 128.226 68.9067 128.226 66.56H138.21V112H125.666Z" fill="white"/>
</svg>
